<svg width="20" height="20" viewBox="0 0 20 20" fill="none" xmlns="http://www.w3.org/2000/svg">
<path fill-rule="evenodd" clip-rule="evenodd" d="M20 10C20 15.5228 15.5228 20 10 20C4.47715 20 0 15.5228 0 10C0 4.47715 4.47715 0 10 0C15.5228 0 20 4.47715 20 10ZM13.3588 13.3587C13.0659 13.6516 12.591 13.6516 12.2981 13.3587L10 11.0606L7.7019 13.3587C7.40901 13.6516 6.93413 13.6516 6.64124 13.3587C6.34835 13.0658 6.34835 12.5909 6.64124 12.298L8.93935 9.99994L6.64125 7.70184C6.34836 7.40895 6.34836 6.93408 6.64125 6.64118C6.93415 6.34829 7.40902 6.34829 7.70191 6.64118L10 8.93928L12.2981 6.64119C12.591 6.3483 13.0659 6.3483 13.3588 6.64119C13.6516 6.93409 13.6516 7.40896 13.3588 7.70185L11.0607 9.99994L13.3588 12.298C13.6517 12.5909 13.6517 13.0658 13.3588 13.3587Z" fill="#0D0140" fill-opacity="0.6"/>
</svg>
