<svg width="129" height="94" viewBox="0 0 129 94" fill="none" xmlns="http://www.w3.org/2000/svg">
<rect x="14.6502" y="6" width="88.5399" height="82" rx="41" fill="#130160"/>
<path d="M41.4817 49.9067C42.6073 46.0165 47.0519 43.4526 51.6583 44.5957C56.2647 45.7388 58.7296 50.0173 57.6041 53.9076C56.4786 57.7978 52.034 60.3617 47.4276 59.2186C42.8212 58.0755 40.3562 53.7969 41.4817 49.9067Z" stroke="white" stroke-width="5"/>
<path d="M58.4364 46.5529L82.5845 33.7323" stroke="white" stroke-width="5" stroke-linecap="round"/>
<path d="M78.3766 35.9824L81.076 40.3125" stroke="white" stroke-width="5" stroke-linecap="round"/>
<path d="M70.4281 40.2324L73.1275 44.5625" stroke="white" stroke-width="5" stroke-linecap="round"/>
<rect opacity="0.5" x="6.01214" y="3" width="45.3497" height="42" rx="21" fill="#4C407B"/>
<rect x="0.613403" width="45.3497" height="42" rx="21" fill="#FF9228"/>
<path d="M21.2082 23.2637V22.541C21.2082 22.0983 21.27 21.7077 21.3937 21.3691C21.5174 21.0241 21.716 20.6986 21.9894 20.3926C22.2629 20.0801 22.6242 19.7611 23.0734 19.4355C23.4771 19.1491 23.7993 18.8919 24.0402 18.6641C24.2876 18.4362 24.4667 18.2116 24.5773 17.9902C24.6945 17.7624 24.7531 17.5052 24.7531 17.2188C24.7531 16.7956 24.5969 16.4733 24.2844 16.252C23.9719 16.0306 23.5357 15.9199 22.9758 15.9199C22.4159 15.9199 21.8592 16.0078 21.3058 16.1836C20.759 16.3594 20.2023 16.5905 19.6359 16.877L18.5715 14.7383C19.2225 14.3737 19.9289 14.0807 20.6906 13.8594C21.4523 13.6315 22.2857 13.5176 23.1906 13.5176C24.5838 13.5176 25.6613 13.8529 26.423 14.5234C27.1913 15.1875 27.5754 16.0339 27.5754 17.0625C27.5754 17.6094 27.4875 18.0846 27.3117 18.4883C27.1424 18.8854 26.882 19.2565 26.5305 19.6016C26.1854 19.9401 25.7525 20.2982 25.2316 20.6758C24.841 20.9622 24.5415 21.2031 24.3332 21.3984C24.1249 21.5938 23.9816 21.7891 23.9035 21.9844C23.8319 22.1732 23.7961 22.4043 23.7961 22.6777V23.2637H21.2082ZM20.8957 26.6035C20.8957 25.9915 21.0617 25.5618 21.3937 25.3145C21.7323 25.0671 22.1392 24.9434 22.6144 24.9434C23.0767 24.9434 23.4738 25.0671 23.8058 25.3145C24.1444 25.5618 24.3137 25.9915 24.3137 26.6035C24.3137 27.1895 24.1444 27.6126 23.8058 27.873C23.4738 28.1335 23.0767 28.2637 22.6144 28.2637C22.1392 28.2637 21.7323 28.1335 21.3937 27.873C21.0617 27.6126 20.8957 27.1895 20.8957 26.6035Z" fill="white"/>
<path d="M116.588 83.3056L116.791 79.0892C118.904 78.0443 121.262 77.4924 123.658 77.4813C120.36 79.9754 120.772 84.7832 118.536 88.1372C117.83 89.1783 116.879 90.0591 115.755 90.7144C114.631 91.3696 113.362 91.7825 112.042 91.9224L109.281 93.4854C108.903 91.5326 108.986 89.527 109.526 87.6069C110.066 85.6867 111.05 83.8977 112.409 82.3631C113.181 81.5091 114.066 80.7485 115.044 80.0991C115.705 81.7113 116.588 83.3056 116.588 83.3056Z" fill="#E6E6E6"/>
<path d="M109.476 91.3156L106.977 91.3154L105.788 82.3993L109.477 82.3995L109.476 91.3156Z" fill="#FFB6B6"/>
<path d="M110.114 93.5562L102.055 93.556V93.4617C102.055 92.6923 102.385 91.9544 102.974 91.4104C103.562 90.8663 104.36 90.5606 105.191 90.5606H105.192L106.664 89.5277L109.41 90.5608L110.114 90.5608L110.114 93.5562Z" fill="#2F2E41"/>
<path d="M97.8647 91.3156L95.3655 91.3154L94.1765 82.3993L97.8654 82.3995L97.8647 91.3156Z" fill="#FFB6B6"/>
<path d="M98.5022 93.5562L90.4433 93.556V93.4617C90.4434 92.6923 90.7739 91.9544 91.3621 91.4104C91.9503 90.8663 92.7481 90.5606 93.58 90.5606H93.5802L95.0523 89.5277L97.7988 90.5608L98.5023 90.5608L98.5022 93.5562Z" fill="#2F2E41"/>
<path d="M96.783 42.5704L113.04 42.9463C116.127 44.4973 116.174 47.8543 115.162 51.8399C115.162 51.8399 115.504 54.2089 114.821 54.8406C114.138 55.4723 113.796 55.4723 114.138 56.5778C114.479 57.6833 112.675 59.4889 112.894 59.6916C113.113 59.8943 113.626 60.9998 113.626 60.9998L111.918 70.0018C111.918 70.0018 110.723 85.6369 110.381 85.9527C110.04 86.2686 109.698 85.9527 110.04 86.7424C110.381 87.532 110.723 87.2162 110.381 87.532C110.079 87.8337 109.794 88.15 109.527 88.4796H105.399C105.399 88.4796 105.088 86.9003 105.088 86.7424C105.088 86.5844 104.746 85.6369 104.746 85.4789C104.746 85.321 105.048 85.0418 105.048 85.0418C105.152 84.7208 105.223 84.3912 105.259 84.0576C105.259 83.7417 106.283 71.5811 106.283 71.5811L104.234 55.7882L99.2821 71.2653C99.2821 71.2653 99.2821 84.8472 98.9406 85.1631C98.5991 85.4789 98.5991 85.321 98.7698 85.9527C98.9406 86.5844 99.6236 86.4265 99.1114 86.9003C98.5991 87.3741 98.4283 86.5844 98.5991 87.3741L98.7698 88.1637L93.6472 88.2315C93.6472 88.2315 92.9641 86.9003 93.3057 86.4265C93.6472 85.9527 93.6267 86.082 93.21 85.3067C92.7934 84.5313 92.6226 84.3734 92.7934 84.2155C92.9641 84.0576 92.9641 83.2176 92.9641 83.2176L93.8179 68.1067C93.8179 68.1067 93.9887 52.1558 93.9887 51.682C94.0015 51.4382 93.953 51.195 93.8468 50.9715V50.3284L94.5009 48.0496L96.783 42.5704Z" fill="#69687F"/>
<path d="M106.549 11.3062C109.338 11.3062 111.6 9.21461 111.6 6.63453C111.6 4.05445 109.338 1.96289 106.549 1.96289C103.759 1.96289 101.498 4.05445 101.498 6.63453C101.498 9.21461 103.759 11.3062 106.549 11.3062Z" fill="#FFB6B6"/>
<path d="M104.023 14.3939C102.935 14.9922 102.284 16.0916 101.91 17.2102C101.218 19.2814 100.802 21.4227 100.67 23.587L100.275 30.0665L95.3874 43.8631C99.6237 47.1784 115.548 44.6166 115.548 44.6166C115.548 44.6166 116.036 44.4659 115.548 44.0138C115.059 43.5617 114.583 43.9622 115.072 43.5101C115.561 43.058 115.224 43.5617 115.061 43.1096C114.898 42.6575 115.061 42.9589 115.224 42.8082C115.386 42.6575 113.962 41.3012 113.962 41.3012L115.266 33.3818L116.895 17.4078C114.94 15.1473 111.008 13.8148 111.008 13.8148L109.991 12.1233L104.911 12.4992L104.023 14.3939Z" fill="#130160"/>
<path d="M103.33 3.89286C103.526 3.89427 103.72 3.91788 103.909 3.96315C104.282 4.04609 104.661 4.10484 105.043 4.13898C106.213 4.24073 107.311 4.70195 108.164 5.44899C109.017 6.19603 109.574 7.18578 109.747 8.26018C110.041 8.02351 110.708 7.58815 111.256 7.99276C111.264 7.99919 111.269 8.00249 111.288 7.99405C111.652 7.83455 112.297 5.87123 112.317 4.14256C112.327 3.22505 112.171 2.05342 111.369 1.6824L111.326 1.66285L111.315 1.62036C111.262 1.41397 110.663 1.06166 109.622 0.787456C107.73 0.289145 104.911 -0.681573 103.323 0.747009C103.203 1.22862 102.812 2.25926 102.417 2.37608C101.98 2.50539 101.602 2.61698 101.542 3.11309C101.493 3.81909 101.496 4.52744 101.553 5.23297C101.701 4.80124 101.992 4.42338 102.385 4.15256C102.664 3.97877 102.994 3.88814 103.33 3.89286Z" fill="#2F2E41"/>
<path d="M93.9288 29.7058L102.18 24.8186L98.024 19.7092L93.9205 24.3778L81.1349 25.1031C80.7986 24.7956 80.3728 24.5853 79.9095 24.4978C79.4462 24.4102 78.9654 24.4493 78.5257 24.6101C78.086 24.7709 77.7064 25.0466 77.4331 25.4036C77.1599 25.7605 77.0049 26.1833 76.9869 26.6203C76.969 27.0573 77.0889 27.4897 77.3321 27.8648C77.5752 28.2399 77.9311 28.5414 78.3564 28.7326C78.7817 28.9239 79.2579 28.9965 79.727 28.9418C80.1962 28.887 80.6379 28.7071 80.9985 28.4242L93.9288 29.7058Z" fill="#FFB6B6"/>
<path d="M109.838 17.997C110.317 20.6774 101.273 25.7958 101.273 25.7958C101.273 25.1667 95.8757 29.9162 95.632 29.3944C94.9396 27.9115 94.4528 24.3991 93.4853 23.8369C92.9319 23.5154 96.8177 20.4951 96.8177 20.4951C96.8177 20.4951 98.8518 18.5999 101.521 16.2093C102.262 15.5206 103.18 15.0164 104.188 14.7438C105.196 14.4712 106.263 14.4389 107.288 14.6501C107.288 14.6501 109.359 15.3165 109.838 17.997Z" fill="#130160"/>
<path d="M126.844 30.9886L121.386 23.4626L115.951 27.4135L121.085 31.1091L122.14 42.9164C121.814 43.2338 121.596 43.632 121.511 44.0622C121.426 44.4925 121.479 44.9362 121.662 45.3394C121.845 45.7426 122.151 46.0878 122.543 46.3329C122.934 46.578 123.395 46.7124 123.868 46.7198C124.34 46.7271 124.805 46.6071 125.205 46.3743C125.606 46.1415 125.924 45.806 126.122 45.4087C126.32 45.0114 126.388 44.5695 126.319 44.1369C126.25 43.7042 126.046 43.2995 125.732 42.9722L126.844 30.9886Z" fill="#FFB6B6"/>
<path d="M113.85 16.5259C116.738 16.0264 122.462 24.2801 122.462 24.2801C121.782 24.2935 127.03 29.1839 126.472 29.4202C124.883 30.0919 121.097 30.6164 120.509 31.523C120.174 32.0414 116.826 28.5123 116.826 28.5123C116.826 28.5123 114.735 26.6716 112.094 24.254C111.334 23.5834 110.769 22.7457 110.453 21.819C110.137 20.8923 110.08 19.9067 110.287 18.954C110.287 18.954 110.963 17.0255 113.85 16.5259Z" fill="#130160"/>
<path d="M128.238 93.5934C128.239 93.6228 128.232 93.6519 128.22 93.6791C128.208 93.7063 128.19 93.731 128.168 93.7518C128.145 93.7725 128.119 93.789 128.089 93.8002C128.06 93.8114 128.028 93.8172 127.997 93.8171H71.0392C70.9751 93.8171 70.9136 93.7935 70.8682 93.7516C70.8229 93.7096 70.7974 93.6527 70.7974 93.5934C70.7974 93.5341 70.8229 93.4772 70.8682 93.4353C70.9136 93.3933 70.9751 93.3698 71.0392 93.3698H127.997C128.028 93.3697 128.06 93.3754 128.089 93.3866C128.119 93.3978 128.145 93.4143 128.168 93.4351C128.19 93.4559 128.208 93.4805 128.22 93.5077C128.232 93.5349 128.239 93.564 128.238 93.5934Z" fill="#130160"/>
</svg>
