<svg width="352" height="353" viewBox="0 0 352 353" fill="none" xmlns="http://www.w3.org/2000/svg">
<g clip-path="url(#clip0_13_557)">
<path d="M293.081 129.07C291.075 105.081 282.971 82.0018 269.54 62.024C248.022 30.209 212.903 13.024 174.697 22.39C138.57 31.252 129.4 70.368 99.2999 87.7C76.1999 101 41.1999 122.7 46.7999 161.2C48.6269 173.751 56.9359 182.9 68.3319 188.059C83.9139 195.094 105.705 192.259 119.6 202.5C135.7 214.4 149 231.2 184 243.8C211.685 253.768 242.905 241.84 263.8 222.975C289.574 199.756 296 162.313 293.081 129.07Z" fill="#130160"/>
<path opacity="0.7" d="M293.081 129.07C291.075 105.081 282.971 82.0018 269.54 62.024C248.022 30.209 212.903 13.024 174.697 22.39C138.57 31.252 129.4 70.368 99.2999 87.7C76.1999 101 41.1999 122.7 46.7999 161.2C48.6269 173.751 56.9359 182.9 68.3319 188.059C83.9139 195.094 105.705 192.259 119.6 202.5C135.7 214.4 149 231.2 184 243.8C211.685 253.768 242.905 241.84 263.8 222.975C289.574 199.756 296 162.313 293.081 129.07Z" fill="white"/>
<path d="M303.308 255.364L298.548 250.66C302.51 244.92 300.802 240.692 297.4 236.8C295.349 234.455 289.987 234.812 283.4 235.659L247 199.7L241.4 201.8C241.4 201.8 256.548 220.245 270.737 237.206C264.843 237.731 258.914 237.738 254 236.1C239.3 231.2 227.4 220.7 227.4 220.7C210.6 222.1 235.8 249.4 245.6 257.1C265.2 272.5 275.616 269.7 289.532 259.326C292.031 262.182 293.837 264.149 294.6 264.8L294.747 264.926C301.019 270.134 309.104 261.097 303.308 255.364Z" fill="#130160"/>
<path opacity="0.5" d="M303.308 255.364L298.548 250.66C302.51 244.92 300.802 240.692 297.4 236.8C295.349 234.455 289.987 234.812 283.4 235.659L247 199.7L241.4 201.8C241.4 201.8 256.548 220.245 270.737 237.206C264.843 237.731 258.914 237.738 254 236.1C239.3 231.2 227.4 220.7 227.4 220.7C210.6 222.1 235.268 250.135 245.6 257.1C268.7 272.654 275.616 269.7 289.532 259.326C292.031 262.182 293.837 264.149 294.6 264.8L294.747 264.926C301.019 270.134 309.104 261.097 303.308 255.364Z" fill="white"/>
<path d="M80.897 128.517C80.897 128.517 99.307 149.797 99.405 176.159C99.503 202.521 81.261 223.976 81.261 223.976C81.261 223.976 62.851 202.696 62.753 176.341C62.655 149.986 80.897 128.517 80.897 128.517Z" fill="#130160"/>
<path d="M121.35 188.815C121.35 188.815 121.462 206.14 112.159 217.151C102.856 228.162 87.659 228.694 87.659 228.694C87.659 228.694 87.54 211.369 96.85 200.358C106.16 189.347 121.35 188.815 121.35 188.815Z" fill="#130160"/>
<path d="M41.389 187.212C41.389 187.212 40.619 204.516 49.502 215.968C58.385 227.42 73.554 228.694 73.554 228.694C73.554 228.694 74.317 211.39 65.434 199.938C56.551 188.486 41.389 187.212 41.389 187.212Z" fill="#130160"/>
<g opacity="0.5">
<path d="M80.897 128.517C80.897 128.517 99.307 149.797 99.405 176.159C99.503 202.521 81.261 223.976 81.261 223.976C81.261 223.976 62.851 202.696 62.753 176.341C62.655 149.986 80.897 128.517 80.897 128.517Z" fill="white"/>
<path d="M121.35 188.815C121.35 188.815 121.462 206.14 112.159 217.151C102.856 228.162 87.659 228.694 87.659 228.694C87.659 228.694 87.54 211.369 96.85 200.358C106.16 189.347 121.35 188.815 121.35 188.815Z" fill="white"/>
<path d="M41.389 187.212C41.389 187.212 40.619 204.516 49.502 215.968C58.385 227.42 73.554 228.694 73.554 228.694C73.554 228.694 74.317 211.39 65.434 199.938C56.551 188.486 41.389 187.212 41.389 187.212Z" fill="white"/>
</g>
<path d="M69.599 199.623C69.6316 199.562 69.6783 199.51 69.7351 199.471C69.7919 199.432 69.8572 199.406 69.9256 199.398C69.9941 199.389 70.0637 199.396 70.1286 199.42C70.1935 199.443 70.252 199.481 70.299 199.532L79.973 208.177C80.048 208.235 80.1384 208.27 80.2331 208.278C80.3278 208.285 80.4226 208.264 80.5055 208.218C80.5884 208.171 80.6558 208.102 80.6993 208.017C80.7428 207.933 80.7605 207.837 80.75 207.743L80.645 187.8C80.6441 187.649 80.5866 187.504 80.484 187.394L65.959 172.757C65.8618 172.655 65.8041 172.521 65.7964 172.38C65.7887 172.239 65.8315 172.099 65.917 171.987C65.9543 171.93 66.0042 171.883 66.0628 171.848C66.1214 171.814 66.1871 171.794 66.2549 171.789C66.3227 171.784 66.3906 171.795 66.4534 171.821C66.5162 171.847 66.5722 171.887 66.617 171.938L79.868 185.294C79.9384 185.363 80.0285 185.407 80.1257 185.422C80.2228 185.436 80.3221 185.42 80.4095 185.375C80.4969 185.33 80.568 185.259 80.6127 185.172C80.6575 185.084 80.6737 184.985 80.659 184.888L80.575 162.943C80.577 162.792 80.5191 162.646 80.414 162.537L70.775 153.059C70.6767 152.957 70.6178 152.824 70.6088 152.683C70.5998 152.542 70.6414 152.402 70.726 152.289C70.7627 152.232 70.8122 152.184 70.8705 152.149C70.9288 152.114 70.9944 152.093 71.0621 152.087C71.1299 152.082 71.198 152.092 71.2612 152.118C71.3243 152.143 71.3807 152.182 71.426 152.233L79.749 160.5C80.057 160.808 80.54 160.556 80.54 160.087L80.4 129.063C80.3923 128.928 80.4378 128.795 80.5267 128.693C80.6157 128.591 80.7411 128.528 80.876 128.517C80.9432 128.521 81.0089 128.537 81.0696 128.566C81.1302 128.595 81.1845 128.636 81.2294 128.686C81.2743 128.736 81.3088 128.795 81.3311 128.858C81.3533 128.922 81.3628 128.989 81.359 129.056L81.534 174.99C81.522 175.097 81.5467 175.205 81.6039 175.296C81.6611 175.387 81.7475 175.456 81.849 175.492C81.9506 175.528 82.0612 175.528 82.1629 175.493C82.2646 175.458 82.3514 175.389 82.409 175.298L93.189 157.329C93.2201 157.272 93.263 157.223 93.3149 157.185C93.3667 157.146 93.4262 157.12 93.4894 157.106C93.5525 157.093 93.6178 157.093 93.6808 157.108C93.7437 157.122 93.8028 157.15 93.854 157.189C93.9608 157.28 94.0319 157.406 94.055 157.544C94.078 157.682 94.0515 157.824 93.98 157.945L81.625 178.532L81.548 178.469L81.618 197.292C81.6059 197.389 81.6241 197.488 81.67 197.574C81.7159 197.66 81.7873 197.731 81.8745 197.775C81.9618 197.819 82.0606 197.836 82.1575 197.822C82.2544 197.808 82.3447 197.765 82.416 197.698L95.562 184.23C95.6056 184.177 95.6609 184.136 95.7236 184.108C95.7863 184.081 95.8545 184.069 95.9227 184.073C95.9909 184.077 96.0572 184.097 96.1162 184.132C96.1752 184.166 96.2251 184.214 96.262 184.272C96.3476 184.384 96.3904 184.524 96.3827 184.665C96.375 184.806 96.3173 184.94 96.22 185.042L81.653 199.973L81.744 223.437C81.7488 223.504 81.7402 223.572 81.7189 223.635C81.6975 223.699 81.6637 223.758 81.6195 223.809C81.5753 223.86 81.5214 223.901 81.4611 223.931C81.4008 223.961 81.3352 223.979 81.268 223.983C81.2006 223.98 81.1344 223.964 81.0733 223.935C81.0122 223.907 80.9575 223.866 80.9125 223.816C80.8674 223.765 80.8329 223.707 80.811 223.643C80.7891 223.579 80.7803 223.511 80.785 223.444L80.736 210.536C80.7371 210.456 80.7215 210.377 80.6901 210.303C80.6588 210.23 80.6124 210.164 80.554 210.109L69.683 200.4C69.5776 200.302 69.511 200.17 69.4956 200.027C69.4801 199.884 69.5169 199.741 69.599 199.623Z" fill="white"/>
<path d="M41.8999 188.353C41.9448 188.302 42.0008 188.262 42.0636 188.236C42.1264 188.21 42.1943 188.199 42.2621 188.204C42.3298 188.209 42.3956 188.229 42.4542 188.263C42.5128 188.298 42.5627 188.345 42.5999 188.402L57.2019 206.98C57.5099 207.379 58.0909 207.085 58.0279 206.553L56.8309 195.717C56.8062 195.582 56.8357 195.442 56.9129 195.328C56.9901 195.214 57.109 195.135 57.2439 195.108C57.31 195.102 57.3765 195.11 57.4395 195.131C57.5025 195.151 57.5606 195.185 57.6104 195.229C57.6601 195.272 57.7004 195.326 57.7289 195.386C57.7573 195.446 57.7734 195.511 57.7759 195.577L59.3439 209.696L64.9999 216.955C65.0613 217.031 65.1447 217.085 65.2385 217.111C65.3322 217.137 65.4318 217.133 65.5234 217.1C65.6149 217.067 65.6939 217.007 65.7494 216.927C65.8048 216.847 65.834 216.751 65.8329 216.654L66.8619 206.294C66.8646 206.227 66.8806 206.162 66.9089 206.101C66.9372 206.04 66.9772 205.986 67.0268 205.941C67.0763 205.896 67.1342 205.861 67.1973 205.839C67.2603 205.817 67.3272 205.807 67.3939 205.811C67.5287 205.837 67.6481 205.914 67.7266 206.026C67.8051 206.139 67.8365 206.278 67.8139 206.413L66.5889 218.705C66.5721 218.857 66.6148 219.01 66.7079 219.132L74.3309 228.841C74.4161 228.953 74.4592 229.092 74.4528 229.232C74.4464 229.373 74.3909 229.507 74.2959 229.611C74.2516 229.662 74.1961 229.703 74.1336 229.729C74.071 229.756 74.0033 229.767 73.9356 229.763C73.8678 229.759 73.8019 229.74 73.743 229.706C73.6841 229.672 73.6338 229.625 73.5959 229.569L69.4799 224.326C69.4355 224.267 69.3772 224.219 69.3101 224.187C69.2429 224.155 69.1691 224.141 69.0949 224.144L61.4999 224.669C61.4328 224.669 61.3664 224.656 61.3044 224.63C61.2424 224.604 61.1861 224.567 61.1386 224.519C61.0912 224.472 61.0535 224.416 61.0278 224.354C61.0022 224.292 60.9889 224.225 60.9889 224.158C60.9749 224.021 61.0145 223.884 61.0993 223.776C61.1842 223.667 61.3077 223.596 61.4439 223.577L67.5269 223.157C67.622 223.139 67.7107 223.096 67.7844 223.033C67.8581 222.971 67.9143 222.89 67.9474 222.799C67.9806 222.708 67.9896 222.61 67.9735 222.514C67.9575 222.419 67.917 222.329 67.8559 222.254L61.7589 214.491C61.7166 214.437 61.6624 214.393 61.6006 214.362C61.5387 214.332 61.4708 214.316 61.4019 214.316H50.5379C50.403 214.305 50.2776 214.242 50.1886 214.14C50.0997 214.038 50.0542 213.905 50.0619 213.77C50.0572 213.703 50.0657 213.635 50.0871 213.572C50.1085 213.508 50.1423 213.449 50.1865 213.398C50.2307 213.347 50.2845 213.306 50.3449 213.276C50.4052 213.246 50.4708 213.228 50.5379 213.224H59.6939C59.7993 213.22 59.9015 213.187 59.9888 213.128C60.0761 213.069 60.1449 212.986 60.1874 212.89C60.2298 212.793 60.2441 212.687 60.2286 212.582C60.2131 212.478 60.1685 212.38 60.0999 212.3L53.3799 203.739C53.3376 203.682 53.2826 203.637 53.2194 203.605C53.1563 203.573 53.0866 203.557 53.0159 203.557L46.0159 203.655C45.9488 203.651 45.883 203.635 45.8224 203.606C45.7618 203.577 45.7075 203.536 45.6626 203.486C45.6177 203.436 45.5832 203.377 45.5609 203.314C45.5387 203.25 45.5292 203.183 45.5329 203.116C45.5272 203.049 45.5348 202.981 45.5553 202.917C45.5758 202.853 45.6088 202.793 45.6524 202.742C45.696 202.69 45.7493 202.648 45.8093 202.618C45.8693 202.587 45.9348 202.568 46.0019 202.563L51.3219 202.493C51.42 202.478 51.5125 202.438 51.5899 202.376C51.6673 202.314 51.7268 202.233 51.7624 202.14C51.798 202.048 51.8084 201.947 51.7925 201.849C51.7766 201.751 51.735 201.66 51.6719 201.583L41.8999 189.123C41.81 189.015 41.7607 188.879 41.7607 188.738C41.7607 188.597 41.81 188.461 41.8999 188.353Z" fill="white"/>
<path d="M91.439 213.196C91.5052 213.191 91.5717 213.2 91.6347 213.221C91.6977 213.242 91.7559 213.275 91.8059 213.318C91.856 213.362 91.897 213.415 91.9265 213.475C91.9561 213.534 91.9735 213.599 91.978 213.665L92.797 220.546C92.7978 220.641 92.8273 220.733 92.8816 220.81C92.9358 220.888 93.0123 220.947 93.1009 220.981C93.1895 221.014 93.2861 221.02 93.3781 220.997C93.47 220.975 93.553 220.925 93.616 220.854L99.951 213.357C100.046 213.238 100.091 213.088 100.077 212.937L99.3 200.589C99.282 200.454 99.3183 200.316 99.4009 200.208C99.4835 200.099 99.6057 200.027 99.741 200.008C99.8074 200.006 99.8736 200.018 99.9355 200.042C99.9974 200.066 100.054 200.102 100.101 200.148C100.149 200.195 100.187 200.25 100.213 200.311C100.239 200.373 100.252 200.438 100.252 200.505L100.952 210.914C100.949 211.011 100.976 211.106 101.029 211.188C101.082 211.269 101.159 211.332 101.248 211.368C101.338 211.405 101.437 211.413 101.532 211.392C101.626 211.371 101.712 211.321 101.778 211.25L108.778 202.969C108.872 202.847 108.92 202.696 108.911 202.542L108.302 194.618C108.285 194.482 108.321 194.345 108.402 194.235C108.482 194.124 108.602 194.049 108.736 194.023C108.803 194.021 108.869 194.033 108.932 194.057C108.994 194.081 109.051 194.117 109.099 194.163C109.147 194.209 109.186 194.265 109.212 194.326C109.239 194.387 109.253 194.453 109.254 194.52L109.716 200.554C109.712 200.65 109.739 200.746 109.791 200.827C109.844 200.908 109.92 200.97 110.01 201.006C110.099 201.042 110.198 201.05 110.292 201.028C110.386 201.006 110.471 200.955 110.535 200.883L120.72 188.829C120.761 188.775 120.814 188.732 120.875 188.702C120.936 188.672 121.002 188.656 121.07 188.656C121.138 188.656 121.204 188.672 121.265 188.702C121.326 188.732 121.379 188.775 121.42 188.829C121.51 188.937 121.559 189.073 121.559 189.214C121.559 189.355 121.51 189.491 121.42 189.599L106.244 207.568C105.915 207.953 106.244 208.583 106.678 208.478L116.079 206.301C116.144 206.29 116.211 206.293 116.275 206.309C116.339 206.324 116.399 206.353 116.451 206.393C116.504 206.433 116.548 206.484 116.58 206.541C116.612 206.599 116.632 206.662 116.639 206.728C116.67 206.862 116.649 207.003 116.58 207.123C116.511 207.242 116.4 207.331 116.268 207.372L103.969 210.2L98.04 217.2C97.9736 217.275 97.9285 217.366 97.9094 217.465C97.8904 217.563 97.898 217.665 97.9316 217.759C97.9652 217.853 98.0235 217.937 98.1005 218.001C98.1774 218.065 98.2701 218.108 98.369 218.124L107.511 218.523C107.578 218.529 107.644 218.548 107.703 218.58C107.763 218.612 107.816 218.655 107.859 218.707C107.902 218.759 107.934 218.819 107.954 218.883C107.973 218.948 107.98 219.016 107.973 219.083C107.976 219.15 107.965 219.217 107.941 219.28C107.918 219.342 107.881 219.4 107.835 219.448C107.789 219.496 107.733 219.535 107.671 219.561C107.609 219.588 107.543 219.601 107.476 219.601L96.626 219.132C96.5564 219.13 96.4873 219.144 96.4241 219.173C96.361 219.202 96.3054 219.246 96.262 219.3L88.338 228.68C88.2968 228.734 88.2438 228.777 88.1831 228.807C88.1224 228.837 88.0557 228.853 87.988 228.853C87.9203 228.853 87.8535 228.837 87.7928 228.807C87.7321 228.777 87.6792 228.734 87.638 228.68C87.548 228.572 87.4988 228.436 87.4988 228.295C87.4988 228.154 87.548 228.018 87.638 227.91L91.922 222.842C91.972 222.78 92.009 222.708 92.0306 222.631C92.0523 222.554 92.0582 222.473 92.048 222.394L91.026 213.798C91.0068 213.664 91.0385 213.528 91.115 213.416C91.1916 213.305 91.3072 213.226 91.439 213.196Z" fill="white"/>
<path d="M266.04 198.601L162.055 227.868C160.933 228.144 159.751 228.055 158.683 227.615C157.614 227.174 156.714 226.405 156.112 225.418L77.2571 83.5C76.9896 83.0783 76.8285 82.598 76.7875 82.1003C76.7465 81.6026 76.8269 81.1024 77.0217 80.6426C77.2165 80.1828 77.5199 79.7771 77.9059 79.4604C78.292 79.1436 78.7491 78.9253 79.2381 78.824L183.223 49.557C184.344 49.2796 185.524 49.367 186.591 49.8063C187.659 50.2457 188.558 51.0142 189.159 52L268 193.918C268.267 194.339 268.429 194.818 268.471 195.315C268.513 195.812 268.435 196.311 268.242 196.771C268.05 197.231 267.749 197.637 267.366 197.956C266.982 198.275 266.527 198.496 266.04 198.601Z" fill="#263238" stroke="black" stroke-miterlimit="10"/>
<path d="M160.592 221.645C160.592 221.645 220.68 207.351 261.126 193.344L160.592 221.645Z" fill="#884849"/>
<path d="M261.126 193.344L160.592 221.645L82.8291 81.701L183.363 53.407L261.126 193.344Z" fill="white" stroke="#263238" stroke-miterlimit="10"/>
<path d="M153.585 83.045L161.39 80.847" stroke="#263238" stroke-miterlimit="10"/>
<path d="M99.447 98.284L147.544 84.746" stroke="#263238" stroke-miterlimit="10"/>
<path d="M145.024 91.739L164.414 86.279" stroke="#263238" stroke-miterlimit="10"/>
<path d="M115.309 100.104L139.732 93.23" stroke="#263238" stroke-miterlimit="10"/>
<path d="M102.464 103.716L110.773 101.378" stroke="#263238" stroke-miterlimit="10"/>
<path d="M129.659 102.351L167.438 91.718" stroke="#263238" stroke-miterlimit="10"/>
<path d="M105.488 109.155L121.35 104.689" stroke="#263238" stroke-miterlimit="10"/>
<path d="M188.592 78.95C187.598 77.3245 186.113 76.0568 184.352 75.3296C182.59 74.6025 180.643 74.4534 178.792 74.904C175.173 75.926 173.71 79.384 175.516 82.639C176.508 84.2668 177.993 85.5365 179.755 86.264C181.517 86.9914 183.465 87.1389 185.316 86.685C188.9 85.67 190.398 82.205 188.592 78.95Z" fill="white" stroke="#263238" stroke-miterlimit="10"/>
<path d="M120.72 120.32L112.915 122.518" stroke="#263238" stroke-miterlimit="10"/>
<path d="M174.858 105.081L126.761 118.619" stroke="#263238" stroke-miterlimit="10"/>
<path d="M135.322 122.497L115.932 127.957" stroke="#263238" stroke-miterlimit="10"/>
<path d="M165.037 114.132L140.614 121.006" stroke="#263238" stroke-miterlimit="10"/>
<path d="M177.882 110.52L169.573 112.858" stroke="#263238" stroke-miterlimit="10"/>
<path d="M156.728 122.756L118.956 133.389" stroke="#263238" stroke-miterlimit="10"/>
<path d="M180.906 115.952L165.037 120.418" stroke="#263238" stroke-miterlimit="10"/>
<path d="M202.06 103.191C201.068 101.563 199.583 100.293 197.821 99.566C196.059 98.8386 194.112 98.6911 192.26 99.145C188.641 100.16 187.178 103.625 188.984 106.845C189.975 108.474 191.46 109.744 193.222 110.472C194.984 111.199 196.933 111.346 198.784 110.891C202.396 109.904 203.866 106.439 202.06 103.191Z" fill="white" stroke="#263238" stroke-miterlimit="10"/>
<path d="M180.521 131.513L188.326 129.315" stroke="#263238" stroke-miterlimit="10"/>
<path d="M126.383 146.752L174.48 133.214" stroke="#263238" stroke-miterlimit="10"/>
<path d="M171.96 140.214L191.35 134.754" stroke="#263238" stroke-miterlimit="10"/>
<path d="M142.245 148.579L166.668 141.698" stroke="#263238" stroke-miterlimit="10"/>
<path d="M129.4 152.191L137.709 149.853" stroke="#263238" stroke-miterlimit="10"/>
<path d="M156.595 150.819L194.367 140.193" stroke="#263238" stroke-miterlimit="10"/>
<path d="M132.424 157.63L148.286 153.164" stroke="#263238" stroke-miterlimit="10"/>
<path d="M215.962 132.009C217.161 128.958 215.004 125.255 211.143 123.737C207.283 122.219 203.181 123.462 201.981 126.514C200.782 129.565 202.939 133.268 206.8 134.786C210.66 136.304 214.762 135.06 215.962 132.009Z" fill="white" stroke="#263238" stroke-miterlimit="10"/>
<path d="M147.656 168.795L139.851 170.993" stroke="#263238" stroke-miterlimit="10"/>
<path d="M201.794 153.556L153.697 167.094" stroke="#263238" stroke-miterlimit="10"/>
<path d="M162.258 170.972L142.868 176.425" stroke="#263238" stroke-miterlimit="10"/>
<path d="M191.973 162.607L167.55 169.481" stroke="#263238" stroke-miterlimit="10"/>
<path d="M204.818 158.988L196.509 161.326" stroke="#263238" stroke-miterlimit="10"/>
<path d="M183.664 171.231L145.892 181.864" stroke="#263238" stroke-miterlimit="10"/>
<path d="M207.835 164.427L191.973 168.893" stroke="#263238" stroke-miterlimit="10"/>
<path d="M228.989 151.659C227.996 150.032 226.512 148.763 224.75 148.036C222.988 147.308 221.04 147.16 219.189 147.613C215.57 148.635 214.107 152.093 215.913 155.348C216.905 156.976 218.39 158.246 220.152 158.973C221.914 159.7 223.862 159.848 225.713 159.394C229.332 158.4 230.802 154.9 228.989 151.659Z" fill="white" stroke="#263238" stroke-miterlimit="10"/>
<path d="M207.457 179.988L215.262 177.79" stroke="#263238" stroke-miterlimit="10"/>
<path d="M153.319 195.227L201.416 181.689" stroke="#263238" stroke-miterlimit="10"/>
<path d="M198.896 188.682L218.286 183.229" stroke="#263238" stroke-miterlimit="10"/>
<path d="M169.181 197.047L193.604 190.173" stroke="#263238" stroke-miterlimit="10"/>
<path d="M156.336 200.666L164.645 198.321" stroke="#263238" stroke-miterlimit="10"/>
<path d="M183.531 199.294L221.303 188.661" stroke="#263238" stroke-miterlimit="10"/>
<path d="M159.36 206.098L175.222 201.632" stroke="#263238" stroke-miterlimit="10"/>
<path d="M242.896 180.479C244.095 177.428 241.938 173.725 238.077 172.207C234.216 170.689 230.114 171.932 228.915 174.984C227.716 178.035 229.873 181.738 233.734 183.256C237.594 184.774 241.696 183.53 242.896 180.479Z" fill="white" stroke="#263238" stroke-miterlimit="10"/>
<path d="M149.329 55.78L136.113 59.497C135.112 59.539 134.013 59.462 133.705 58.951C133.005 57.635 133.901 56.403 134.181 55.241C134.505 53.9017 134.297 52.4888 133.6 51.3C132.58 49.6276 131.054 48.3237 129.242 47.5773C127.431 46.831 125.429 46.6809 123.527 47.149C119.817 48.199 118.319 51.748 120.167 55.08C121.074 56.6191 122.433 57.8412 124.059 58.58C124.059 58.58 126.74 59.777 127.279 60.743C127.566 61.254 126.817 61.856 126.054 62.311L111.809 66.322C111.272 66.4349 110.77 66.6761 110.346 67.025C109.923 67.3739 109.59 67.8201 109.376 68.3255C109.162 68.831 109.074 69.3807 109.118 69.9277C109.163 70.4747 109.339 71.0029 109.632 71.467L111.557 74.925L157.806 61.912L155.881 58.447C155.216 57.3623 154.221 56.5185 153.042 56.0388C151.864 55.559 150.563 55.4683 149.329 55.78ZM125.788 51.258C126.397 51.107 127.039 51.1546 127.62 51.3939C128.2 51.6331 128.689 52.0515 129.015 52.588C129.16 52.8168 129.247 53.0774 129.269 53.3474C129.291 53.6174 129.247 53.8886 129.141 54.1379C129.035 54.3871 128.87 54.6069 128.66 54.7783C128.451 54.9497 128.202 55.0677 127.937 55.122C127.329 55.2731 126.689 55.2263 126.11 54.9883C125.531 54.7503 125.043 54.3337 124.717 53.799C124.572 53.5701 124.485 53.3095 124.463 53.0396C124.441 52.7697 124.484 52.4984 124.589 52.2488C124.694 51.9992 124.858 51.7788 125.067 51.6063C125.276 51.4338 125.523 51.3143 125.788 51.258Z" fill="#130160" stroke="#263238" stroke-miterlimit="10"/>
<path d="M177.847 79.356L183.552 83.339L189.432 70.158" stroke="#130160" stroke-width="6" stroke-linecap="round" stroke-linejoin="round"/>
<path d="M191.105 103.219L196.81 107.195L202.69 94.021" stroke="#130160" stroke-width="6" stroke-linecap="round" stroke-linejoin="round"/>
<path d="M284.674 99.957C284.674 99.957 286.193 96.723 285.241 94.245C284.289 91.767 266.768 87.77 266.768 87.77C266.768 87.77 262.771 87.77 262.96 90.059C263.149 92.348 277.625 101.105 278.766 101.861C279.907 102.617 284.289 104.339 284.674 99.957Z" fill="white" stroke="#263238" stroke-linejoin="round"/>
<path d="M268.217 84.571C267.138 84.1715 266.08 83.7183 265.046 83.213C263.534 82.457 265.193 85.936 265.802 86.083C266.411 86.23 267.902 86.538 267.902 86.538L268.217 84.571Z" fill="white" stroke="#263238" stroke-linejoin="round"/>
<path d="M215.927 118.43L207.17 129.091L207.926 130.617L220.309 127.6L307.466 76.864C308.336 76.3548 309.096 75.6765 309.699 74.8692C310.303 74.0618 310.74 73.1417 310.982 72.1631C311.225 71.1846 311.269 70.1673 311.113 69.1713C310.956 68.1753 310.601 67.2208 310.07 66.364C309.539 65.5154 308.845 64.7809 308.027 64.2033C307.21 63.6257 306.285 63.2165 305.308 62.9995C304.331 62.7826 303.32 62.7622 302.335 62.9397C301.35 63.1171 300.41 63.4888 299.57 64.033L215.927 118.43Z" fill="#130160" stroke="#263238" stroke-linejoin="round"/>
<path d="M259.719 98.669L256.877 100.503" stroke="#263238" stroke-linecap="round" stroke-linejoin="round"/>
<path d="M284.184 82.933L263.191 96.443" stroke="#263238" stroke-linecap="round" stroke-linejoin="round"/>
<path d="M207.982 128.867C207.982 128.867 205.805 129.777 206.141 130.694C206.477 131.611 209.599 129.392 209.599 129.392L207.982 128.867Z" fill="#130160" stroke="#263238" stroke-linejoin="round"/>
<path d="M207.17 129.091L207.926 130.617L220.309 127.6C213.449 124.933 215.927 118.458 215.927 118.458L207.17 129.091Z" fill="white" stroke="#263238" stroke-linejoin="round"/>
<path d="M310.07 66.315C309.539 65.4664 308.845 64.7319 308.027 64.1543C307.21 63.5767 306.285 63.1675 305.308 62.9505C304.331 62.7336 303.32 62.7132 302.335 62.8907C301.35 63.0681 300.41 63.4397 299.57 63.984L284.366 73.882C283.956 74.9255 283.747 76.037 283.75 77.158C283.707 79.4055 284.555 81.5786 286.109 83.2025C287.664 84.8264 289.798 85.7689 292.045 85.824L307.494 76.836C308.365 76.3245 309.124 75.6436 309.727 74.8335C310.33 74.0234 310.765 73.1006 311.005 72.1197C311.245 71.1388 311.286 70.1197 311.125 69.1227C310.965 68.1256 310.606 67.1709 310.07 66.315Z" fill="white" stroke="#263238" stroke-linejoin="round"/>
<path d="M310.07 66.315C309.539 65.4664 308.845 64.7319 308.027 64.1543C307.21 63.5767 306.285 63.1675 305.308 62.9505C304.331 62.7336 303.32 62.7132 302.335 62.8907C301.35 63.0681 300.41 63.4397 299.57 63.984L288.02 71.509C287.462 72.661 287.172 73.9247 287.173 75.205C287.158 76.2946 287.358 77.3764 287.762 78.3885C288.166 79.4006 288.765 80.3232 289.526 81.1034C290.287 81.8836 291.194 82.5062 292.195 82.9354C293.197 83.3647 294.273 83.5922 295.363 83.605C295.552 83.605 295.748 83.605 295.93 83.605L307.494 76.878C308.371 76.3666 309.135 75.6838 309.742 74.8704C310.349 74.0569 310.785 73.1296 311.026 72.1437C311.266 71.1577 311.305 70.1335 311.141 69.132C310.977 68.1306 310.613 67.1725 310.07 66.315Z" fill="#263238" stroke="#263238" stroke-linejoin="round"/>
<path d="M258.55 88.05C258.55 88.05 256.856 88.05 256.856 88.82C256.856 89.59 256.408 92.32 257.388 92.243C258.368 92.166 258.284 90.451 258.368 89.849C258.452 89.247 258.55 88.05 258.55 88.05Z" fill="white" stroke="#263238" stroke-linejoin="round"/>
<path d="M260.398 85.264C260.398 85.264 258.886 84.795 258.536 85.726C258.186 86.657 257.836 91.081 258.886 90.962C259.936 90.843 260.167 86.895 260.398 85.264Z" fill="white" stroke="#263238" stroke-linejoin="round"/>
<path d="M262.729 85.495C262.729 85.495 260.979 83.983 260.398 85.264C259.817 86.545 259.698 90.164 260.398 90.164C261.098 90.164 262.148 88.6519 262.379 87.8399C262.553 87.0679 262.67 86.2842 262.729 85.495Z" fill="white" stroke="#263238" stroke-linejoin="round"/>
<path d="M265.2 86.195C265.2 86.195 262.988 84.333 262.638 84.683C262.288 85.033 260.888 88.617 261.938 89.338C262.988 90.059 264.318 86.839 264.318 86.839L265.2 86.195Z" fill="white" stroke="#263238" stroke-linejoin="round"/>
<path d="M233.231 97.241C233.231 97.241 233.476 100.972 234.47 101.847C235.071 102.367 235.613 102.952 236.087 103.59C236.224 104.539 236.308 105.495 236.339 106.453C236.339 107.573 237.088 107.447 237.739 107.447C238.39 107.447 239.482 109.547 240.105 110.555C241.292 112.021 242.711 113.284 244.305 114.293C245.425 114.916 247.294 112.55 247.294 112.55L248.162 115.042L257.003 109.316L252.649 100.846C252.392 97.9099 251.499 95.065 250.031 92.509C247.539 88.029 244.179 85.509 238.579 87.154C232.979 88.799 233.231 97.241 233.231 97.241Z" fill="white" stroke="#263238" stroke-linejoin="round"/>
<path d="M243.458 80.651C241.37 80.7423 239.309 81.1555 237.347 81.876C234.078 83.031 233.273 87.581 230.424 89.212C227.575 90.843 228.793 87.812 227.365 88.596C225.937 89.38 224.516 96.541 227.568 98.578C230.62 100.615 235.107 97.969 235.107 97.969C235.107 97.969 234.701 99.369 235.919 99.803C236.656 100.047 237.406 100.251 238.166 100.412C238.166 100.412 237.956 102.862 239.79 102.652C241.624 102.442 240 99.6 240 99.6C240 99.6 243.465 106.32 246.118 107.139C248.771 107.958 252.635 104.283 253.65 102.652C254.665 101.021 253.853 89.415 251.613 84.935C249.373 80.455 243.458 80.651 243.458 80.651Z" fill="#263238" stroke="#263238" stroke-linejoin="round"/>
<path d="M240.077 103.961C240.077 103.961 238.831 99.229 240.819 99.852C242.807 100.475 243.934 104.71 243.808 105.207C243.682 105.704 242.688 105.949 242.191 105.83" fill="white"/>
<path d="M240.077 103.961C240.077 103.961 238.831 99.229 240.819 99.852C242.807 100.475 243.934 104.71 243.808 105.207C243.682 105.704 242.688 105.949 242.191 105.83" stroke="#263238" stroke-linecap="round" stroke-linejoin="round"/>
<path d="M254.462 105.676C252.141 106.98 249.923 108.459 247.826 110.1C245.726 111.969 243.843 117.569 243.843 117.569C243.843 117.569 256.667 108.854 258.907 107.615C261.147 106.376 261.644 105.746 261.644 105.746C261.644 105.746 256.954 105.053 254.462 105.676Z" fill="white" stroke="#263238" stroke-linejoin="round"/>
<path d="M271.724 98.053C272.266 97.0936 273.003 96.2589 273.888 95.6029C274.773 94.9468 275.787 94.4842 276.862 94.245C280.481 93.482 285.262 95.96 285.815 99.957C286.368 103.954 283.337 105.865 281.433 105.865C279.529 105.865 277.814 103.198 277.814 103.198C277.814 103.198 271.724 100.909 271.724 98.053Z" fill="white" stroke="#263238" stroke-linejoin="round"/>
<path d="M220.687 140.522L226.784 124.331C226.102 124.941 225.221 125.28 224.306 125.283C222.78 125.283 219.168 124.716 220.106 124.142C221.044 123.568 224.67 121.097 224.67 121.097C224.67 121.097 222.01 121.671 221.247 121.097C220.484 120.523 220.106 119.76 220.673 119.571C221.24 119.382 222.388 119.571 224.481 118.808C226.574 118.045 227.526 117.289 229.241 117.289C230.956 117.289 232.482 120.334 232.482 121.286C232.482 122.238 231.145 140.326 231.145 141.089C231.145 141.852 231.145 142.615 226.196 143.189C221.247 143.763 220.498 142.615 220.687 140.522Z" fill="white" stroke="#263238" stroke-linejoin="round"/>
<path d="M226.784 124.331L227.687 120.775" stroke="#263238" stroke-linecap="round" stroke-linejoin="round"/>
<path d="M226.588 136.518C226.588 136.518 220.498 138.233 219.357 140.9C218.216 143.567 218.405 147.564 220.687 149.853C222.969 152.142 223.928 152.709 226.399 151.757C228.87 150.805 229.451 149.279 229.64 147.753C229.829 146.227 231.159 141.089 226.588 136.518Z" fill="white" stroke="#263238" stroke-linejoin="round"/>
<path d="M224.117 217.263C224.117 217.263 218.783 214.785 216.69 215.737C214.597 216.689 214.59 217.641 217.257 221.834C219.924 226.027 227.351 231.165 229.857 230.017C232.363 228.869 230.046 221.26 230.046 221.26L224.117 217.263Z" fill="white" stroke="#263238" stroke-linejoin="round"/>
<path d="M220.309 223.164C218.459 221.115 216.904 218.818 215.689 216.339C214.709 217.207 215.129 218.481 217.257 221.834C219.924 226.034 227.351 231.165 229.857 230.017C230.175 229.813 230.437 229.532 230.619 229.201C230.802 228.87 230.898 228.498 230.9 228.12C227.4 229.597 223.781 227 220.309 223.164Z" fill="white" stroke="#263238" stroke-linejoin="round"/>
<path d="M251.536 158.988L251.725 164.707C251.725 164.707 240.112 169.082 234.4 173.107C228.688 177.132 224.88 180.149 224.306 183.957C223.732 187.765 224.117 217.284 224.117 217.284C224.117 217.284 222.402 217.662 222.976 218.803C223.55 219.944 224.684 224.137 226.21 224.515C227.736 224.893 229.64 225.663 230.018 224.711C230.396 223.759 231.544 218.047 232.307 216.143C233.07 214.239 234.4 205.3 235.541 199C236.209 195.483 236.591 191.918 236.682 188.339C240.703 187.779 244.658 186.822 248.491 185.483C255.155 183.194 264.864 179.008 264.864 179.008C264.864 179.008 272.676 198.608 274.391 202.43C276.106 206.252 282.791 214.806 284.1 217.284C285.409 219.762 293.809 230.423 293.809 230.423C293.809 230.423 297.05 227.567 299.143 227.567H301.999C301.999 227.567 298.569 218.047 295.699 212.328C292.829 206.609 286.942 197.285 286.942 197.285C286.942 197.285 281.615 163.972 281.419 161.676C281.048 157.28 278.234 150.644 278.234 150.644C278.234 150.644 269.057 148.705 251.536 158.988Z" fill="#263238" stroke="#263238" stroke-linejoin="round"/>
<path d="M293.809 230.402C293.32 231.2 292.876 232.025 292.479 232.873C292.29 233.447 288.097 234.021 288.671 235.925C289.245 237.829 293.62 239.348 295.713 239.544C297.806 239.74 302.013 236.877 302.762 236.114C303.21 235.666 303.882 232.705 303.525 230.402C303.293 229.326 302.764 228.337 301.999 227.546C301.999 227.546 298.38 222.023 293.809 230.402Z" fill="white" stroke="#263238" stroke-linejoin="round"/>
<path d="M303.525 230.402C303.33 229.435 302.883 228.537 302.23 227.798C301.442 227.804 300.663 227.971 299.941 228.287C299.219 228.604 298.569 229.064 298.03 229.639C296.126 231.921 297.078 237.066 294.789 237.829C293.088 238.396 290.113 236.317 288.713 235.225C288.635 235.452 288.635 235.698 288.713 235.925C289.28 237.829 293.662 239.348 295.755 239.544C297.848 239.74 302.055 236.877 302.804 236.114C303.21 235.666 303.882 232.705 303.525 230.402Z" fill="white" stroke="#263238" stroke-linejoin="round"/>
<path d="M298.569 231.732C297.813 235.162 298.765 237.444 295.713 239.544C297.813 239.733 302.013 236.877 302.762 236.114C303.21 235.666 303.882 232.705 303.525 230.402C303.443 229.925 303.285 229.464 303.056 229.037H302.762C302.762 229.037 299.332 228.309 298.569 231.732Z" fill="#263238" stroke="#263238" stroke-linejoin="round"/>
<path d="M266.768 178.602L278.003 173.086" stroke="white" stroke-linecap="round" stroke-linejoin="round"/>
<path d="M271.913 176.131L281.622 174.794" stroke="white" stroke-linecap="round" stroke-linejoin="round"/>
<path d="M275.7 96.723C272.466 97.101 264.087 102.813 263.513 103.387C262.939 103.961 260.657 105.291 259.705 106.054C259.705 106.054 240.105 118.241 238.376 119.354C236.647 120.467 233.238 122.784 233.427 123.554C233.616 124.324 223.333 141.054 223.333 141.054C223.333 141.054 220.288 145.058 223.144 148.67C226 152.282 228.667 149.818 229.997 149.055C231.327 148.292 241.806 138.387 241.806 138.387L251.466 161.487C251.466 161.487 264.843 152.52 279.13 153.087L269.603 115.763C269.603 115.763 282.749 105.865 283.127 102.463C283.505 99.061 278.955 96.338 275.7 96.723Z" fill="white"/>
<mask id="mask0_13_557" style="mask-type:luminance" maskUnits="userSpaceOnUse" x="221" y="96" width="63" height="66">
<path d="M275.7 96.723C272.466 97.101 264.087 102.813 263.513 103.387C262.939 103.961 260.657 105.291 259.705 106.054C259.705 106.054 240.105 118.241 238.376 119.354C236.647 120.467 233.238 122.784 233.427 123.554C233.616 124.324 223.333 141.054 223.333 141.054C223.333 141.054 220.288 145.058 223.144 148.67C226 152.282 228.667 149.818 229.997 149.055C231.327 148.292 241.806 138.387 241.806 138.387L251.466 161.487C251.466 161.487 264.843 152.52 279.13 153.087L269.603 115.763C269.603 115.763 282.749 105.865 283.127 102.463C283.505 99.061 278.955 96.338 275.7 96.723Z" fill="white"/>
</mask>
<g mask="url(#mask0_13_557)">
<path d="M275.7 96.7232C274.405 96.8772 272.284 97.8852 270.163 99.0752C270.646 98.982 271.146 99.0332 271.601 99.2225C272.055 99.4117 272.444 99.7305 272.718 100.139C274.293 102.162 270.919 108.679 270.919 108.679C270.919 108.679 269.519 99.6772 269.575 102.379C269.631 105.081 268.875 113.39 268.875 113.39C268.875 113.39 264.381 108 264.605 109.344C264.829 110.688 267.748 123.274 269.547 127.992C271.346 132.71 268.196 145.961 266.404 149.776C264.612 153.591 265.704 133.606 263.702 138.576C261.7 143.546 254.945 157.217 253.37 158.568C251.795 159.919 253.874 140.249 254.434 137.687C253.734 139.829 249.107 153.402 249.107 153.402L242.807 137.225C242.807 137.225 232.027 128.468 233.147 130.036C234.267 131.604 236.969 136.553 236.969 136.553C236.969 136.553 230.452 135.202 231.579 135.657C232.706 136.112 237.641 138.576 237.641 138.576C237.641 138.576 227.533 145.765 224.614 146.661C223.829 146.892 223.022 147.04 222.206 147.102C222.417 147.689 222.722 148.238 223.109 148.726C225.965 152.345 228.632 149.874 229.962 149.111C231.292 148.348 241.771 138.443 241.771 138.443L251.431 161.543C251.431 161.543 264.808 152.576 279.095 153.143L269.568 115.819C269.568 115.819 282.714 105.921 283.092 102.519C283.47 99.1172 278.955 96.3382 275.7 96.7232Z" fill="#130160"/>
<path opacity="0.5" d="M275.7 96.7232C274.405 96.8772 272.284 97.8852 270.163 99.0752C270.646 98.982 271.146 99.0332 271.601 99.2225C272.055 99.4117 272.444 99.7305 272.718 100.139C274.293 102.162 270.919 108.679 270.919 108.679C270.919 108.679 269.519 99.6772 269.575 102.379C269.631 105.081 268.875 113.39 268.875 113.39C268.875 113.39 264.381 108 264.605 109.344C264.829 110.688 267.748 123.274 269.547 127.992C271.346 132.71 268.196 145.961 266.404 149.776C264.612 153.591 265.704 133.606 263.702 138.576C261.7 143.546 254.945 157.217 253.37 158.568C251.795 159.919 253.874 140.249 254.434 137.687C253.734 139.829 249.107 153.402 249.107 153.402L242.807 137.225C242.807 137.225 232.027 128.468 233.147 130.036C234.267 131.604 236.969 136.553 236.969 136.553C236.969 136.553 230.452 135.202 231.579 135.657C232.706 136.112 237.641 138.576 237.641 138.576C237.641 138.576 227.533 145.765 224.614 146.661C223.829 146.892 223.022 147.04 222.206 147.102C222.417 147.689 222.722 148.238 223.109 148.726C225.965 152.345 228.632 149.874 229.962 149.111C231.292 148.348 241.771 138.443 241.771 138.443L251.431 161.543C251.431 161.543 264.808 152.576 279.095 153.143L269.568 115.819C269.568 115.819 282.714 105.921 283.092 102.519C283.47 99.1172 278.955 96.3382 275.7 96.7232Z" fill="white"/>
</g>
<path d="M275.7 96.723C272.466 97.101 264.087 102.813 263.513 103.387C262.939 103.961 260.657 105.291 259.705 106.054C259.705 106.054 240.105 118.241 238.376 119.354C236.647 120.467 233.238 122.784 233.427 123.554C233.616 124.324 223.333 141.054 223.333 141.054C223.333 141.054 220.288 145.058 223.144 148.67C226 152.282 228.667 149.818 229.997 149.055C231.327 148.292 241.806 138.387 241.806 138.387L251.466 161.487C251.466 161.487 264.843 152.52 279.13 153.087L269.603 115.763C269.603 115.763 282.749 105.865 283.127 102.463C283.505 99.061 278.955 96.338 275.7 96.723Z" stroke="#263238" stroke-linejoin="round"/>
<path d="M251.487 161.487C250.929 156.248 251.201 150.954 252.292 145.8Z" fill="white"/>
<path d="M251.487 161.487C250.929 156.248 251.201 150.954 252.292 145.8" stroke="#263238" stroke-linecap="round" stroke-linejoin="round"/>
<path d="M249.681 149.818C249.681 149.818 249.681 146.598 253.3 136.518Z" fill="white"/>
<path d="M249.681 149.818C249.681 149.818 249.681 146.598 253.3 136.518" stroke="#263238" stroke-linecap="round" stroke-linejoin="round"/>
<path d="M234.4 130.05L241.827 138.422L234.211 132.899" fill="white"/>
<path d="M234.4 130.05L241.827 138.422L234.211 132.899" stroke="#263238" stroke-linecap="round" stroke-linejoin="round"/>
<path d="M269.624 105.102V115.763L272.102 102.057" fill="white"/>
<path d="M269.624 105.102V115.763L272.102 102.057" stroke="#263238" stroke-linecap="round" stroke-linejoin="round"/>
<path d="M254.546 137.4C254.518 137.477 254.497 137.557 254.483 137.638C254.567 137.4 254.595 137.309 254.546 137.4Z" fill="#263238"/>
</g>
<defs>
<clipPath id="clip0_13_557">
<rect width="352" height="353" fill="white"/>
</clipPath>
</defs>
</svg>
