<svg width="25" height="23" viewBox="0 0 25 23" fill="none" xmlns="http://www.w3.org/2000/svg">
<mask id="path-1-inside-1_57_591" fill="white">
<path fill-rule="evenodd" clip-rule="evenodd" d="M24.4337 11.25C22.6536 15.6477 18.3421 18.75 13.306 18.75H11.7918C6.75574 18.75 2.44425 15.6477 0.664093 11.25C2.44425 6.85226 6.75575 3.75 11.7918 3.75H13.306C18.3421 3.75 22.6536 6.85226 24.4337 11.25Z"/>
</mask>
<path d="M24.4337 11.25L25.8241 11.8128L26.052 11.25L25.8241 10.6872L24.4337 11.25ZM0.664093 11.25L-0.726314 10.6872L-0.954138 11.25L-0.726314 11.8128L0.664093 11.25ZM23.0433 10.6872C21.4846 14.538 17.7102 17.25 13.306 17.25V20.25C18.9739 20.25 23.8226 16.7575 25.8241 11.8128L23.0433 10.6872ZM13.306 17.25H11.7918V20.25H13.306V17.25ZM11.7918 17.25C7.38761 17.25 3.61326 14.538 2.0545 10.6872L-0.726314 11.8128C1.27525 16.7575 6.12387 20.25 11.7918 20.25V17.25ZM2.0545 11.8128C3.61326 7.96203 7.38762 5.25 11.7918 5.25V2.25C6.12388 2.25 1.27525 5.74248 -0.726314 10.6872L2.0545 11.8128ZM11.7918 5.25H13.306V2.25H11.7918V5.25ZM13.306 5.25C17.7102 5.25 21.4846 7.96203 23.0433 11.8128L25.8241 10.6872C23.8226 5.74248 18.974 2.25 13.306 2.25V5.25Z" fill="#60778C" mask="url(#path-1-inside-1_57_591)"/>
<path d="M16.5354 1.5L8.56226 21.75" stroke="#60778C" stroke-width="1.5" stroke-linecap="round"/>
<path d="M17.8067 1.5L9.83356 21.75" stroke="white" stroke-width="1.5" stroke-linecap="round"/>
<path d="M8.51498 11.25C8.51498 9.17893 10.1939 7.5 12.265 7.5H12.8328C14.9039 7.5 16.5828 9.17893 16.5828 11.25C16.5828 13.3211 14.9039 15 12.8328 15H12.265C10.1939 15 8.51498 13.3211 8.51498 11.25Z" stroke="#60778C" stroke-width="1.5"/>
</svg>
