<svg width="26" height="17" viewBox="0 0 26 17" fill="none" xmlns="http://www.w3.org/2000/svg">
<path d="M23.7364 6.19975C25.1146 7.50697 25.1146 9.49303 23.7364 10.8003C21.4119 13.005 17.4197 16 12.885 16C8.35026 16 4.3581 13.005 2.03365 10.8003C0.655452 9.49303 0.655451 7.50697 2.03365 6.19975C4.3581 3.995 8.35026 1 12.885 1C17.4197 1 21.4119 3.995 23.7364 6.19975Z" stroke="#60778C" stroke-width="1.5"/>
<path d="M16.4505 8.5C16.4505 10.2752 14.8542 11.7143 12.885 11.7143C10.9158 11.7143 9.3195 10.2752 9.3195 8.5C9.3195 6.7248 10.9158 5.28571 12.885 5.28571C14.8542 5.28571 16.4505 6.7248 16.4505 8.5Z" stroke="#60778C" stroke-width="1.5"/>
</svg>
